<svg xmlns="http://www.w3.org/2000/svg" viewBox="0 0 20.86 160.33"><defs><style>.cls-1{fill:#ff779c;}</style></defs><title>Asset 2</title><g id="Layer_2" data-name="Layer 2"><g id="Layer_1-2" data-name="Layer 1"><path class="cls-1" d="M12.51,155c.56-3.34,3.76-25.73,3.77-34.45L13.12,88.1a45.13,45.13,0,0,1-6.9,3.32A5.32,5.32,0,0,1,5,91.64a4.27,4.27,0,0,1-1.49-.31L.18,120.41c-.64,4.63.56,9.33,1.35,13.92.41,2.27,3.32,18.32,4.44,24.48a1.85,1.85,0,0,0,2.14,1.49,1.91,1.91,0,0,0,.67-.26A8.22,8.22,0,0,0,12.51,155Zm-4.4,2.33-.29.2-.08-.36c0-.23-4.25-22.65-5.57-31.2-.4-2.57,1.54-2.94,1.54-2.94l.22,0,0,.21c.27,1,6.26,25.11,6.61,29.21a5.57,5.57,0,0,1-2.48,4.9Z"/><path class="cls-1" d="M16.08,41.55c.76-6.1-.44-10.78-1.25-15.38-.38-2.35-3.44-19-4.48-24.87A1.58,1.58,0,0,0,8.53,0a1.77,1.77,0,0,0-.59.23A8.71,8.71,0,0,0,4,5.77C3.43,9.11.07,31.35.06,40.07L3.13,69.2a3.89,3.89,0,0,1,1.61-.39A3.13,3.13,0,0,1,5.83,69c1.8.64,4.53,1.86,7,3Zm-3.48-3.7-.22,0-.05-.21c-.25-1-6.22-25.09-6.6-29.23a5.64,5.64,0,0,1,2.5-4.88l.29-.18.08.34c0,.25,4.28,22.71,5.57,31.21.38,2.61-1.56,2.94-1.59,2.95Z"/><path class="cls-1" d="M19.87,77.72C16.61,75.34,9.8,72.31,5.6,70.78a4.32,4.32,0,0,0-.45-.19l-.32-.07a.8.8,0,0,0-.34.07,1.52,1.52,0,0,0-1.21,1.28c-.21,6.08-.15,10.9.17,16.67a1.59,1.59,0,0,0,1.63,1.25,1.85,1.85,0,0,0,.48-.07,44.18,44.18,0,0,0,14.28-8.58C21.14,80,21.24,78.69,19.87,77.72ZM4.94,79.56V73.84a.85.85,0,0,1,.8-.9h.16a1,1,0,0,1,.25,0S15,76.42,17.42,78.14c1.32.92,1.15,1.45,1.15,1.45Z"/></g></g></svg>
